<?xml version="1.0" encoding="UTF-8"?>
<svg width="88px" height="145px" viewBox="0 0 88 145" version="1.1" xmlns="http://www.w3.org/2000/svg" xmlns:xlink="http://www.w3.org/1999/xlink">
    <title>Group</title>
    <g id="Page-1" stroke="none" stroke-width="1" fill="none" fill-rule="evenodd">
        <g id="Artboard" transform="translate(-58.000000, -25.000000)" fill-rule="nonzero">
            <g id="Group" transform="translate(58.382680, 25.961595)">
                <path d="M48.6083203,3.8224047 L81.7753203,49.6424047 L62.9314664,61.6392663 C64.81731,66.2443643 67.4972803,71.9364167 71.1833203,79.0074047 C84.3023203,104.170405 80.9923203,116.876405 72.7043203,122.153405 L48.4363203,137.601405 C56.7243203,132.326405 60.0353203,119.620405 46.9153203,94.4564047 C31.5513203,64.9824047 33.6653203,59.4664047 37.9113203,56.7644047 L47.1993203,50.8504047 L24.3413203,19.2704047 L48.6083203,3.8224047 Z" id="Combined-Shape" fill="#2D8BFF"></path>
                <polygon id="Path" fill="#94C4FF" points="2.12132034 30.0624047 26.3893203 14.6144047 48.6083203 3.8224047 24.3413203 19.2704047"></polygon>
                <path d="M24.3413203,19.2704047 L57.5083203,65.0914047 L41.3533203,54.8754047 C35.9153203,58.2144047 27.5933203,57.3924047 46.9153203,94.4574047 C66.2403203,131.523405 49.9153203,141.559405 34.5433203,140.635405 C44.7293203,135.691405 39.5973203,108.892405 23.2493203,81.9894047 C6.90932034,55.0924047 11.3403203,41.4364047 20.5833203,41.7394047 L2.12132034,30.0624047 L24.3413203,19.2704047 Z" id="Path" fill="#297AE0"></path>
                <path d="M49.5449258,0 L47.2626796,1.14112313 L24.9236477,11.9911459 L0.517309154,27.5276651 L0,27.9410844 L0.517309154,31.1451996 L0.518631407,32.5977906 L13.7503203,40.9664047 L13.558439,41.1291136 C11.0119107,43.3354662 9.47506765,46.961604 9.32430213,51.5662308 C9.06394117,59.5180821 12.6983146,70.2400454 20.2956465,82.9015408 L20.6853672,83.5470132 C36.1400369,108.979909 40.9835193,134.174804 33.2333558,137.936517 L22.9203343,142.94217 L34.3633174,143.63 C40.2810882,143.985713 45.8124157,142.848904 50.1009126,140.098468 L74.3153313,124.684144 C85.5962228,117.501559 86.2132388,101.688552 74.2110548,78.3306224 L73.4669532,76.8962238 C70.8666396,71.8806667 68.7438897,67.4958607 67.0650631,63.6891209 L66.6803203,62.8084047 L86.0726954,50.4628819 L49.5449258,0 Z M48.6083203,3.8224047 L81.7753203,49.6424047 L62.9314664,61.6392663 L63.3192863,62.5748652 C65.0462661,66.6926783 67.3803363,71.6415358 70.4594638,77.6115064 L71.1833203,79.0074047 C84.3023203,104.170405 80.9923203,116.876405 72.7043203,122.153405 L48.4813301,137.573205 C44.5539323,140.09205 39.4991011,140.933293 34.5433203,140.635405 C44.6274603,135.740845 39.6984285,109.426199 23.7363914,82.7964418 L23.2493203,81.9894047 C6.90932034,55.0924047 11.3403203,41.4364047 20.5833203,41.7394047 L2.21182443,30.1112515 L26.3893203,14.6144047 L48.6083203,3.8224047 Z" id="Combined-Shape" fill="#BBE5F5"></path>
            </g>
        </g>
    </g>
</svg>