<?xml version="1.0" encoding="UTF-8"?>
<svg width="108px" height="144px" viewBox="0 0 108 144" version="1.1" xmlns="http://www.w3.org/2000/svg" xmlns:xlink="http://www.w3.org/1999/xlink">
    <title>Group</title>
    <g id="Page-1" stroke="none" stroke-width="1" fill="none" fill-rule="evenodd">
        <g id="Artboard" transform="translate(-54.000000, -30.000000)" fill-rule="nonzero">
            <g id="Group" transform="translate(54.142528, 30.109108)">
                <path d="M35.239472,135.183892 L5.98547197,118.182892 L25.458472,106.940892 C31.972472,95.7258922 41.971472,85.3278922 18.531472,71.5208922 C-4.91952803,57.7188922 14.633472,24.1588922 33.102472,3.81289216 L62.357472,20.8128922 C43.886472,41.1588922 24.334472,74.7198922 47.785472,88.5198922 C49.4631006,89.5082608 50.9694357,90.4791503 52.3180147,91.4341115 L72.751472,79.6348922 L102.005472,96.6358922 L79.744472,109.488892 L58.9985637,97.4313735 C66.8719764,107.083097 59.7500861,115.267361 54.711472,123.940892 L35.239472,135.183892 Z" id="Combined-Shape" fill="#DAB602"></path>
                <path d="M79.744472,109.488892 L102.006472,96.6358922 L75.375472,139.351892 L35.240472,135.183892 L54.712472,123.940892 C61.227472,112.725892 71.225472,102.328892 47.785472,88.5198922 C24.334472,74.7198922 43.887472,41.1588922 62.357472,20.8128922 C50.153472,40.3888922 56.485472,62.4508922 76.291472,69.2438922 C96.090472,76.0398922 90.852472,96.9748922 79.744472,109.488892 Z" id="Path" fill="#F8CE00"></path>
                <path d="M67.2353354,20.1776694 L32.5119401,-2.84217094e-14 L30.8811654,1.79651 C20.1357144,13.6340186 11.2941969,27.1731446 7.25403657,39.162916 C2.14472313,54.3255568 4.74705942,66.6714243 16.6463813,73.889195 L17.0098142,74.1063433 C25.2224986,78.9439089 29.1874455,83.3067044 30.0616043,87.4590659 C30.7202628,90.587775 29.768454,93.7815432 27.012916,98.5663108 L26.3574915,99.6814343 C26.1724116,99.9907995 25.972966,100.319385 25.7055222,100.755913 L23.9600897,103.596424 L23.271472,104.738892 L-2.13162821e-14,118.174334 L34.2899781,138.101318 L76.9297248,142.529434 L106.189401,95.5970496 L92.592472,87.6948922 L92.6065977,87.361367 C92.9139793,77.8213919 87.9266224,70.2306954 77.7006426,66.5591922 L76.7384922,66.2204254 C59.4670859,59.9513735 53.8851335,40.6620776 64.5659483,22.9501034 L64.727472,22.6848922 L67.2353354,20.1776694 Z M33.102472,3.81289216 L62.357472,20.8128922 L61.9969077,21.4009002 C50.3986139,40.6343282 56.5573023,62.0852441 75.7072004,69.0376677 L76.291472,69.2438922 C87.0976472,72.9531081 90.4455235,80.8742061 89.4514088,89.3392197 L102.006472,96.6358922 L75.375472,139.351892 L35.240472,135.183892 L5.98547197,118.182892 L25.458472,106.940892 L25.8531986,106.268939 C32.3590564,95.3086086 41.502672,85.0517522 18.531472,71.5208922 C-4.91952803,57.7188922 14.633472,24.1588922 33.102472,3.81289216 Z" id="Combined-Shape" fill="#BBE5F5"></path>
            </g>
        </g>
    </g>
</svg>