<?xml version="1.0" encoding="UTF-8"?>
<svg width="130px" height="126px" viewBox="0 0 130 126" version="1.1" xmlns="http://www.w3.org/2000/svg" xmlns:xlink="http://www.w3.org/1999/xlink">
    <title>Group</title>
    <g id="Page-1" stroke="none" stroke-width="1" fill="none" fill-rule="evenodd">
        <g id="Artboard-Copy" transform="translate(-44.000000, -39.000000)">
            <g id="Group" transform="translate(47.460000, 42.360419)">
                <path d="M122.352,3.39358127 L122.248,40.0765813 C103.53172,39.4430531 89.0948251,49.3517988 84.8521723,63.7250099 L84.793,84.8775813 C84.741,102.780581 64.491,107.899581 48.253,104.568581 L48.357,67.8865813 C62.1923071,70.7247022 78.9408907,67.4277374 83.6260068,55.3161653 L83.577,72.5925813 C83.61,60.3645813 83.646,48.1385813 83.681,35.9105813 C83.734,16.9305813 99.99,2.63758127 122.352,3.39358127 Z" id="Combined-Shape" fill="#D43535"></path>
                <polygon id="Path" fill="#D43535" fill-rule="nonzero" points="17.941 79.9695813 17.837 116.652581 -9.76996262e-14 76.7105813 0.104 40.0295813"></polygon>
                <path d="M48.356,67.8865813 L72.492,81.8195813 L17.941,79.9695813 L0.104,40.0295813 L21.216,52.2165813 C35.277,52.2535813 50.573,55.9395813 50.827,26.4475813 C51.071,-3.05241873 93.24,-2.91941873 122.352,3.39358127 C97.361,2.54858127 79.998,20.4995813 84.35,42.7805813 C88.7,65.0565813 66.126,71.5325813 48.356,67.8865813 Z" id="Path" fill="#ED3B3B" fill-rule="nonzero"></path>
                <polygon id="Path" fill="#B82E2E" fill-rule="nonzero" points="72.492 81.8195813 72.386 118.502581 17.837 116.652581 17.941 79.9695813"></polygon>
                <path d="M74.7250135,-1.35854707 C58.0722157,2.12179591 48.1515767,11.1578998 47.8337902,25.972085 L47.8271026,26.4227686 C47.728408,37.8821974 45.3641141,44.1376912 41.1389855,46.9835029 C38.0943277,49.0342151 34.7676094,49.5010216 26.9312847,49.3359213 L23.6689671,49.2517642 L22.029,49.222 L-2.88130491,34.842342 L-3.00181348,77.3459477 L15.8620256,119.587326 L75.3767149,121.605735 L75.427,104.661 L75.599624,104.573763 C83.2687774,100.590056 87.7670122,93.8292452 87.7929873,84.8862949 L87.851,64.173 L87.9772062,63.7791543 C92.2095057,50.8832237 105.491658,42.5111133 122.146511,43.0748641 L125.239215,43.1795492 L125.358887,0.968552392 L122.09323,0.270507927 C105.237636,-3.28055977 87.9655715,-4.12575072 74.7250135,-1.35854707 Z M121.474778,3.20606872 L122.352,3.39358127 L122.248,40.0765813 C103.53172,39.4430531 89.0948251,49.3517988 84.8521723,63.7250099 L84.793,84.8775813 C84.7668056,93.8960084 79.6153224,99.6704662 72.4331877,102.754947 L72.386,118.502581 L17.837,116.652581 L8.0957463e-13,76.7105813 L0.104,40.0295813 L21.216,52.2165813 L22.0610118,52.2228855 C35.8828232,52.3877501 50.57808,55.3497413 50.827,26.4475813 C51.06856,-2.75741873 92.4008125,-2.91911543 121.474778,3.20606872 Z" id="Combined-Shape" fill="#BBE5F5" fill-rule="nonzero"></path>
            </g>
        </g>
    </g>
</svg>